<?xml version="1.0" encoding="UTF-8"?>
<svg xmlns="http://www.w3.org/2000/svg" version="1.1" viewBox="0 0 300 111">
  <!-- Generator: Adobe Illustrator 28.7.0, SVG Export Plug-In . SVG Version: 1.2.0 Build 136)  -->
  <g>
    <g id="Layer_1">
      <g>
        <path d="M178.33,110.97c-5.43,0-10.87.01-16.3,0-2.32,0-3.9-1.2-4.19-3.26-.11-.8-.04-1.67.16-2.46,2.27-8.91,4.6-17.81,6.86-26.72.8-3.17,4.12-5.76,7.42-5.72,10.7.12,21.41.05,32.11.05,3.19,0,5.01,2.27,4.22,5.37-2.32,9.09-4.69,18.17-7.02,27.26-.73,2.85-3.65,5.6-7.21,5.52-5.35-.11-10.7-.03-16.06-.03ZM196.1,84.29c-.21-.02-.32-.05-.42-.05-6.9,0-13.8,0-20.71-.02-.54,0-.67.25-.78.68-.65,2.59-1.32,5.18-1.99,7.77-.58,2.27-1.17,4.54-1.76,6.86.2.03.33.07.45.07,6.9,0,13.8,0,20.71.01.5,0,.62-.24.72-.64.79-3.11,1.59-6.21,2.39-9.32.45-1.76.9-3.51,1.38-5.36Z"/>
        <path d="M7.47,83.23c.15-.71.27-1.27.39-1.84.59-2.64,1.19-5.27,1.75-7.91.1-.49.29-.65.79-.65,12.61.01,25.22,0,37.82.02,2.52,0,4.34,2.08,3.89,4.62-.43,2.42-1.14,4.78-1.73,7.17-.1.42-.23.83-.32,1.24-.4,1.82-1.31,3.31-2.75,4.5-1.08.9-1.59,2.04-.58,3.43.7.97.69,2.15.42,3.25-1.11,4.46-2.27,8.91-3.44,13.36-.06.22-.4.52-.61.53-3.37.03-6.75.02-10.12.01-.07,0-.15-.05-.3-.1.44-1.71.88-3.41,1.3-5.11.27-1.09.6-2.17.79-3.27.47-2.68-1.26-4.86-3.95-4.89-5.38-.05-10.76-.01-16.14-.01-.1,0-.21.03-.36.06-.75,2.92-1.51,5.84-2.26,8.77-.34,1.32-.68,2.64-1.01,3.96-.09.36-.19.62-.66.61-3.37-.02-6.75-.02-10.12-.02-.07,0-.15-.04-.28-.07.03-.21.05-.41.1-.61,1.57-6.09,3.19-12.16,4.68-18.26.7-2.87,3.66-5.93,7.56-5.87,8.83.13,17.67.03,26.5.06.74,0,1.05-.21,1.18-.92.11-.65.34-1.29.55-2.06H7.47Z"/>
        <path d="M133.83,35.96v-4.66h8.88v20.16c-.19-.08-.38-.13-.55-.23-13.28-7.39-26.55-14.78-39.83-22.17-.33-.18-.65-.37-.95-.59-1.89-1.37-1.97-3.99-.04-5.3,1.59-1.08,3.31-1.97,4.99-2.91,11.82-6.59,23.65-13.18,35.48-19.76.27-.15.55-.3.92-.5v20.25h-8.88v-4.69c-6.21,3.42-12.28,6.77-18.53,10.2,6.2,3.42,12.29,6.77,18.52,10.2Z"/>
        <path d="M147.03,51.49v-20.19h8.87v4.68c6.23-3.43,12.31-6.78,18.55-10.22-6.22-3.43-12.3-6.78-18.53-10.21v4.68h-8.9V.03c.34.17.59.29.83.42,13.05,7.26,26.09,14.53,39.13,21.8.49.27.98.56,1.43.89,1.9,1.43,1.87,4.05-.12,5.35-1.45.95-3,1.76-4.52,2.61-12.02,6.69-24.04,13.37-36.06,20.05-.2.11-.42.2-.7.34Z"/>
        <path d="M115.59,72.89h11.6c.17,1.69.34,3.36.51,5.03.66,6.76,1.31,13.52,2,20.28.04.38.37.95.65,1.01.38.08.88-.2,1.27-.42.21-.11.31-.42.45-.65,5-8.17,10.01-16.33,14.99-24.51.38-.62.77-.8,1.46-.79,3.5.03,7.01.02,10.62.02-.12.26-.19.45-.29.62-6.89,11.28-13.77,22.56-20.69,33.83-1.49,2.42-3.65,3.75-6.6,3.69-2.73-.06-5.46,0-8.19-.01-2.91,0-4.25-1.18-4.53-4.04-1.1-11.2-2.17-22.41-3.25-33.62-.01-.1,0-.21,0-.42Z"/>
        <path d="M256.01,99.6c-.21.81-.38,1.5-.56,2.19-.74,2.85-1.49,5.69-2.2,8.55-.12.49-.33.64-.82.64-12.55-.01-25.11,0-37.66-.02-2.82,0-4.6-2.11-4.03-4.91.55-2.72,1.32-5.4,2.01-8.09,2.07-8.08,4.17-16.16,6.23-24.24.17-.65.42-.89,1.12-.88,3.05.04,6.1.02,9.15.02h.91c-.23.93-.43,1.78-.65,2.62-1.72,6.71-3.46,13.41-5.16,20.13-.16.65-.22,1.39-.1,2.05.19,1.07.94,1.72,2.03,1.89.42.07.85.07,1.28.07,9.13,0,18.25,0,27.38,0,.31,0,.63,0,1.06,0Z"/>
        <path d="M300,72.85c-.13.52-.24.96-.36,1.39-.79,3.06-1.59,6.11-2.35,9.17-.14.56-.34.77-.96.77-14.03-.02-28.05-.01-42.08-.02-.23,0-.47-.02-.82-.04.19-.73.36-1.39.53-2.05.73-2.82,1.47-5.64,2.17-8.47.14-.56.35-.77.96-.77,14.03.02,28.05.01,42.08.01h.82Z"/>
        <path d="M59.88,83.57c.93-3.61,1.85-7.14,2.77-10.69h43.66c-.27,1.09-.52,2.11-.79,3.14-.59,2.28-1.19,4.55-1.76,6.84-.13.54-.32.78-.95.78-14.05-.02-28.1-.02-42.15-.02-.23,0-.47-.02-.79-.04Z"/>
        <path d="M99.29,100.13c-.92,3.55-1.8,6.96-2.71,10.37-.05.19-.38.33-.59.46-.08.05-.21,0-.32,0-12.36,0-24.72,0-37.08,0-1.6,0-2.95-.4-3.86-1.82-.68-1.06-.78-2.22-.52-3.4.38-1.72.84-3.43,1.31-5.13.06-.21.4-.44.64-.47.53-.07,1.07-.02,1.6-.02,13.48,0,26.97,0,40.45,0h1.07Z"/>
        <path d="M56.43,97.04c.21-.8.39-1.52.58-2.24.64-2.46,1.3-4.91,1.89-7.38.15-.62.4-.79,1.02-.78,5.73.02,11.45.01,17.18.01,6.15,0,12.31,0,18.46,0h.94c0,.17,0,.3-.02.41-.81,3.13-1.63,6.26-2.42,9.4-.12.48-.31.64-.81.63-12.12-.01-24.24-.01-36.36-.01-.1,0-.21-.02-.45-.04Z"/>
        <path d="M262.91,110.87c.2-.8.38-1.57.58-2.33,1.76-6.83,3.54-13.66,5.28-20.5.16-.64.42-.84,1.08-.83,3.05.04,6.1.02,9.15.02h.9c-.06.33-.1.58-.16.83-1.91,7.4-3.82,14.81-5.73,22.21-.09.35-.1.72-.66.71-3.34-.03-6.69-.01-10.04-.02-.1,0-.2-.04-.4-.08Z"/>
      </g>
    </g>
  </g>
</svg>